name Walk_125 04
datacolumns 19
datarows 44
range 1.704167 1.748958
endheader
time	ground_force_vx	ground_force_vy	ground_force_vz	ground_force_px	ground_force_py	ground_force_pz	ground_force_vx	ground_force_vy	ground_force_vz	ground_force_px	ground_force_py	ground_force_pz	ground_torque_x	ground_torque_y	ground_torque_z	ground_torque_x	ground_torque_y	ground_torque_z
1.704167	-0.000000	-0.000000	0.000000	-0.000000	-0.000000	0.000000	-9.584660	589.788262	38.243246	0.835962	0.000000	-0.540048	0.000000	0.000000	0.000000	0.000000	2.468225	0.000000	
1.705208	-0.000000	-0.000000	0.000000	-0.000000	-0.000000	0.000000	-9.333810	589.210163	38.172222	0.835100	0.000000	-0.540030	0.000000	0.000000	0.000000	0.000000	2.443915	0.000000	
1.706250	0.000000	-0.000000	-0.000000	-0.000000	-0.000000	0.000000	-9.078576	588.675040	38.092301	0.834233	0.000000	-0.540012	0.000000	0.000000	0.000000	0.000000	2.418912	0.000000	
1.707292	0.000000	-0.000000	-0.000000	-0.000000	-0.000000	0.000000	-8.817908	588.182940	38.005499	0.833360	0.000000	-0.539994	0.000000	0.000000	0.000000	0.000000	2.393134	0.000000	
1.708333	0.000000	-0.000000	-0.000000	-0.000000	-0.000000	0.000000	-8.550817	587.733753	37.913688	0.832483	0.000000	-0.539975	0.000000	0.000000	0.000000	0.000000	2.366508	0.000000	
1.709375	0.000000	-0.000000	-0.000000	-0.000000	-0.000000	0.000000	-8.276417	587.327214	37.818544	0.831602	0.000000	-0.539955	0.000000	0.000000	0.000000	0.000000	2.338974	0.000000	
1.710417	0.000000	-0.000000	-0.000000	-0.000000	-0.000000	0.000000	-7.993951	586.962916	37.721501	0.830718	0.000000	-0.539934	0.000000	0.000000	0.000000	0.000000	2.310482	0.000000	
1.711458	0.000000	-0.000000	-0.000000	-0.000000	-0.000000	0.000000	-7.702830	586.640315	37.623704	0.829832	0.000000	-0.539912	0.000000	0.000000	0.000000	0.000000	2.280996	0.000000	
1.712500	0.000000	-0.000000	-0.000000	-0.000000	-0.000000	0.000000	-7.402657	586.358751	37.525991	0.828945	0.000000	-0.539889	0.000000	0.000000	0.000000	0.000000	2.250491	0.000000	
1.713542	0.000000	-0.000000	-0.000000	-0.000000	-0.000000	0.000000	-7.093253	586.117454	37.428875	0.828058	0.000000	-0.539864	0.000000	0.000000	0.000000	0.000000	2.218956	0.000000	
1.714583	0.000000	-0.000000	-0.000000	-0.000000	-0.000000	0.000000	-6.774672	585.915568	37.332537	0.827171	0.000000	-0.539837	0.000000	0.000000	0.000000	0.000000	2.186394	0.000000	
1.715625	0.000000	0.000000	-0.000000	0.000000	0.000000	-0.000000	-6.447204	585.752158	37.236839	0.826284	0.000000	-0.539808	0.000000	0.000000	0.000000	0.000000	2.152819	0.000000	
1.716667	-0.000000	0.000000	0.000000	0.000000	0.000000	-0.000000	-6.111382	585.626228	37.141344	0.825398	0.000000	-0.539777	0.000000	0.000000	0.000000	0.000000	2.118257	0.000000	
1.717708	-0.000000	0.000000	0.000000	0.000000	0.000000	-0.000000	-5.767963	585.536728	37.045343	0.824514	0.000000	-0.539744	0.000000	0.000000	0.000000	0.000000	2.082748	0.000000	
1.718750	-0.000000	0.000000	0.000000	0.000000	0.000000	-0.000000	-5.417913	585.482569	36.947898	0.823632	0.000000	-0.539709	0.000000	0.000000	0.000000	0.000000	2.046340	0.000000	
1.719792	-0.000000	0.000000	0.000000	0.000000	0.000000	-0.000000	-5.062371	585.462630	36.847890	0.822751	0.000000	-0.539671	0.000000	0.000000	0.000000	0.000000	2.009091	0.000000	
1.720833	-0.000000	0.000000	0.000000	0.000000	0.000000	-0.000000	-4.702621	585.475763	36.744070	0.821872	0.000000	-0.539631	0.000000	0.000000	0.000000	0.000000	1.971068	0.000000	
1.721875	-0.000000	0.000000	0.000000	0.000000	0.000000	-0.000000	-4.340039	585.520801	36.635119	0.820994	0.000000	-0.539588	0.000000	0.000000	0.000000	0.000000	1.932343	0.000000	
1.722917	-0.000000	0.000000	0.000000	0.000000	0.000000	-0.000000	-3.976052	585.596562	36.519709	0.820118	0.000000	-0.539544	0.000000	0.000000	0.000000	0.000000	1.892996	0.000000	
1.723958	-0.000000	0.000000	-0.000000	0.000000	0.000000	-0.000000	-3.612089	585.701856	36.396563	0.819242	0.000000	-0.539497	0.000000	0.000000	0.000000	0.000000	1.853109	0.000000	
1.725000	-0.000000	0.000000	-0.000000	0.000000	0.000000	-0.000000	-3.249524	585.835487	36.264513	0.818367	0.000000	-0.539448	0.000000	0.000000	0.000000	0.000000	1.812770	0.000000	
1.726042	-0.000000	0.000000	-0.000000	0.000000	0.000000	-0.000000	-2.889638	585.996262	36.122556	0.817490	0.000000	-0.539396	0.000000	0.000000	0.000000	0.000000	1.772064	0.000000	
1.727083	0.000000	-0.000000	-0.000000	-0.000000	-0.000000	0.000000	-2.533572	586.182998	35.969904	0.816612	0.000000	-0.539343	0.000000	0.000000	0.000000	0.000000	1.731079	0.000000	
1.728125	0.000000	-0.000000	-0.000000	-0.000000	-0.000000	0.000000	-2.182293	586.394530	35.806026	0.815731	0.000000	-0.539288	0.000000	0.000000	0.000000	0.000000	1.689902	0.000000	
1.729167	0.000000	-0.000000	-0.000000	-0.000000	-0.000000	0.000000	-1.836566	586.629724	35.630684	0.814847	0.000000	-0.539231	0.000000	0.000000	0.000000	0.000000	1.648618	0.000000	
1.730208	0.000000	-0.000000	0.000000	-0.000000	-0.000000	0.000000	-1.496936	586.887487	35.443955	0.813959	0.000000	-0.539173	0.000000	0.000000	0.000000	0.000000	1.607308	0.000000	
1.731250	0.000000	-0.000000	0.000000	-0.000000	-0.000000	0.000000	-1.163725	587.166782	35.246251	0.813065	0.000000	-0.539113	0.000000	0.000000	0.000000	0.000000	1.566050	0.000000	
1.732292	0.000000	-0.000000	0.000000	-0.000000	-0.000000	0.000000	-0.837029	587.466645	35.038316	0.812165	0.000000	-0.539052	0.000000	0.000000	0.000000	0.000000	1.524918	0.000000	
1.733333	0.000000	-0.000000	0.000000	-0.000000	-0.000000	0.000000	-0.516738	587.786195	34.821227	0.811258	0.000000	-0.538990	0.000000	0.000000	0.000000	0.000000	1.483981	0.000000	
1.734375	0.000000	-0.000000	0.000000	-0.000000	-0.000000	0.000000	-0.202554	588.124655	34.596375	0.810343	0.000000	-0.538928	0.000000	0.000000	0.000000	0.000000	1.443305	0.000000	
1.735417	0.000000	-0.000000	0.000000	-0.000000	-0.000000	0.000000	0.105974	588.481358	34.365436	0.809421	0.000000	-0.538865	0.000000	0.000000	0.000000	0.000000	1.402950	0.000000	
1.736458	0.000000	-0.000000	0.000000	-0.000000	-0.000000	0.000000	0.409415	588.855764	34.130342	0.808490	0.000000	-0.538801	0.000000	0.000000	0.000000	0.000000	1.362970	0.000000	
1.737500	-0.000000	-0.000000	0.000000	-0.000000	-0.000000	0.000000	0.708413	589.247466	33.893233	0.807550	0.000000	-0.538738	0.000000	0.000000	0.000000	0.000000	1.323418	0.000000	
1.738542	-0.000000	-0.000000	0.000000	0.000000	0.000000	-0.000000	1.003645	589.656191	33.656412	0.806602	0.000000	-0.538675	0.000000	0.000000	0.000000	0.000000	1.284341	0.000000	
1.739583	-0.000000	-0.000000	-0.000000	0.000000	0.000000	-0.000000	1.295774	590.081802	33.422288	0.805646	0.000000	-0.538612	0.000000	0.000000	0.000000	0.000000	1.245783	0.000000	
1.740625	-0.000000	0.000000	-0.000000	0.000000	0.000000	-0.000000	1.585412	590.524290	33.193323	0.804682	0.000000	-0.538550	0.000000	0.000000	0.000000	0.000000	1.207786	0.000000	
1.741667	-0.000000	0.000000	-0.000000	0.000000	0.000000	-0.000000	1.873082	590.983764	32.971971	0.803710	0.000000	-0.538489	0.000000	0.000000	0.000000	0.000000	1.170389	0.000000	
1.742708	-0.000000	0.000000	-0.000000	0.000000	0.000000	-0.000000	2.159190	591.460435	32.760617	0.802732	0.000000	-0.538430	0.000000	0.000000	0.000000	0.000000	1.133630	0.000000	
1.743750	-0.000000	0.000000	-0.000000	0.000000	0.000000	-0.000000	2.444000	591.954590	32.561526	0.801748	0.000000	-0.538372	0.000000	0.000000	0.000000	0.000000	1.097547	0.000000	
1.744792	-0.000000	0.000000	-0.000000	0.000000	0.000000	-0.000000	2.727626	592.466571	32.376784	0.800760	0.000000	-0.538316	0.000000	0.000000	0.000000	0.000000	1.062176	0.000000	
1.745833	-0.000000	0.000000	-0.000000	0.000000	0.000000	-0.000000	3.010028	592.996745	32.208251	0.799767	0.000000	-0.538261	0.000000	0.000000	0.000000	0.000000	1.027555	0.000000	
1.746875	-0.000000	0.000000	-0.000000	0.000000	0.000000	-0.000000	3.291018	593.545470	32.057521	0.798773	0.000000	-0.538209	0.000000	0.000000	0.000000	0.000000	0.993721	0.000000	
1.747917	0.000000	0.000000	-0.000000	0.000000	0.000000	-0.000000	3.570277	594.113067	31.925880	0.797776	0.000000	-0.538159	0.000000	0.000000	0.000000	0.000000	0.960713	0.000000	
1.748958	0.000000	0.000000	-0.000000	0.000000	0.000000	-0.000000	3.847381	594.699781	31.814284	0.796779	0.000000	-0.538111	0.000000	0.000000	0.000000	0.000000	0.928571	0.000000	
